<?xml version="1.0" encoding="utf-8"?>
<!-- Generator: Adobe Illustrator 27.7.0, SVG Export Plug-In . SVG Version: 6.00 Build 0)  -->
<svg version="1.1" id="Layer_1" xmlns="http://www.w3.org/2000/svg" xmlns:xlink="http://www.w3.org/1999/xlink" x="0px" y="0px"
	 viewBox="0 0 215 22" style="enable-background:new 0 0 215 22;" xml:space="preserve">
<g>
	<path d="M198.4,0.5c-3.03,0-4.32,1.71-4.32,5.71v9.56c0,4.02,1.29,5.74,4.32,5.74c3.05,0,4.35-1.72,4.35-5.74v-3.04h-2.22v3.17
		c0,2.63-0.48,3.39-2.13,3.39c-1.63,0-2.11-0.76-2.11-3.39V6.08c0-2.61,0.47-3.36,2.11-3.36c1.65,0,2.13,0.75,2.13,3.36v3.19h2.22
		V6.21C202.75,2.21,201.45,0.5,198.4,0.5 M118.2,21.25h6.38v-2.22h-4.16V12.1h4.16V9.88h-4.16V2.97h4.16V0.75h-6.38V21.25z
		 M214.47,2.97V0.75h-6.38v20.5h6.38v-2.22h-4.16V12.1h4.16V9.88h-4.16V2.97H214.47z M158.78,6.21c0-2.84-0.79-3.24-3.69-3.24h-0.59
		v16.06h0.59c2.91,0,3.69-0.41,3.69-3.27V6.21z M160.99,6.21v9.56c0,4.66-1.91,5.48-5.91,5.48h-2.81V0.75h2.81
		C159.09,0.75,160.99,1.57,160.99,6.21 M143.86,21.25h2.22V0.75h-2.22V21.25z M166.68,21.25h6.38v-2.22h-4.16V12.1h4.16V9.88h-4.16
		V2.97h4.16V0.75h-6.38V21.25z M186.52,15.18l-5.58-14.32l-0.04-0.11h-2.17v20.5h2.22V6.82l5.58,14.33l0.04,0.11h2.17V0.75h-2.22
		V15.18z M134.69,9.46c-1.63-1.26-2.46-2.24-2.46-4.13c0-2.16,0.77-2.61,1.93-2.61c1.08,0,2.05,0.3,2.05,3.99v0.17h2.22V6.71
		c0-4.24-1.36-6.21-4.27-6.21c-2.67,0-4.15,1.71-4.15,4.83c0,3.15,1.7,4.71,3.44,6.03c1.97,1.49,2.84,2.4,2.84,4.88
		c0,2.57-0.63,3.04-1.88,3.04c-1.74,0-2.36-0.76-2.36-5.03v-0.17h-2.22v0.17c0,5.35,1.2,7.25,4.58,7.25c2.72,0,4.1-1.77,4.1-5.26
		C138.51,12.58,136.92,11.12,134.69,9.46 M20.49,15.89c0,2.63-0.48,3.39-2.13,3.39c-1.63,0-2.1-0.76-2.1-3.39V0.75h-2.22v15.01
		c0,4.02,1.29,5.73,4.32,5.73c3.05,0,4.35-1.71,4.35-5.73V0.75h-2.22V15.89z M28.05,21.25h6.38v-2.22h-4.16V12.1h4.16V9.88h-4.16
		V2.97h4.16V0.75h-6.38V21.25z M4.85,0.5c-2.95,0-4.32,1.81-4.32,5.71v9.56c0,3.91,1.27,5.74,4,5.74c1.31,0,2.32-0.49,3.07-1.5
		l0.16,1.25H9.2V10.74H4.68v2.22h2.3v2.94c0,2.63-0.48,3.39-2.13,3.39c-1.63,0-2.1-0.76-2.1-3.39V6.08c0-2.61,0.47-3.36,2.1-3.36
		c1.63,0,2.13,0.79,2.13,3.36v2.34H9.2V6.21C9.2,2.26,7.86,0.5,4.85,0.5 M73.73,0.75h-2.22v20.5h2.22V0.75z M43.55,9.46
		c-1.63-1.26-2.46-2.24-2.46-4.13c0-2.16,0.77-2.61,1.93-2.61c1.08,0,2.05,0.3,2.05,3.99v0.17h2.22V6.71c0-4.24-1.36-6.21-4.27-6.21
		c-2.67,0-4.15,1.71-4.15,4.83c0,3.15,1.7,4.71,3.44,6.03c1.97,1.49,2.84,2.4,2.84,4.88c0,2.57-0.63,3.04-1.88,3.04
		c-1.74,0-2.36-0.76-2.36-5.03v-0.17h-2.22v0.17c0,5.35,1.2,7.25,4.58,7.25c2.72,0,4.09-1.77,4.09-5.26
		C47.36,12.58,45.78,11.12,43.55,9.46 M110.13,6.41c0-2.67-0.46-3.44-3.52-3.44h-0.77v7.54h0.77c3.01,0,3.52-1.12,3.52-3.64V6.41z
		 M106.62,12.73h-0.77v8.52h-2.22V0.75h2.99c4.85,0,5.74,1.91,5.74,5.66v0.45c0,2.59-0.64,4.09-2.12,4.92
		c1.44,0.61,2.09,1.92,2.09,4.18v3.33c0,0.49,0,1.4,0.24,1.68l0.23,0.27h-2.32l-0.05-0.06c-0.29-0.35-0.32-1.1-0.32-1.9v-3.51
		C110.11,12.73,108.17,12.73,106.62,12.73 M87.88,15.18L82.25,0.75h-2.17v20.5h2.22V6.82l5.62,14.43h2.17V0.75h-2.22V15.18z
		 M51.83,0.75H60v2.22h-2.97v18.28H54.8V2.97h-2.97V0.75z"/>
</g>
</svg>
